<mxfile host="app.diagrams.net" modified="2024-05-17T06:28:08.037Z" agent="Mozilla/5.0 (Macintosh; Intel Mac OS X 10_15_7) AppleWebKit/537.36 (KHTML, like Gecko) Chrome/124.0.0.0 Safari/537.36" version="24.4.3" etag="JVYP8FRp0ngSXDijW5zC" type="github">
  <diagram name="Page-1" id="8okkQI3dKZmDhBSRDVf-">
    <mxGraphModel>
      <root>
        <mxCell id="0" />
        <mxCell id="1" parent="0" />
      </root>
    </mxGraphModel>
  </diagram>
</mxfile>
